<svg width="275" height="44" viewBox="0 0 275 44" fill="none" xmlns="http://www.w3.org/2000/svg">
<path d="M21.5991 24.9536L19.8914 23.5229C19.9837 23.0152 20.0298 22.4613 20.0298 21.9536C20.0298 21.4459 19.9837 20.8921 19.8914 20.3844L21.5991 18.9536C22.1529 18.4921 22.3375 17.6613 21.9683 17.0152L21.2298 15.6767C20.9529 15.2152 20.4452 14.9382 19.8914 14.9382C19.7068 14.9382 19.5222 14.9844 19.3837 15.0305L17.3068 15.8152C16.476 15.0767 15.5529 14.569 14.6298 14.2459L14.2606 12.0767C14.1222 11.3382 13.476 10.9229 12.7375 10.9229H11.2606C10.5222 10.9229 9.876 11.3382 9.73754 12.0767L9.36831 14.1998C8.35292 14.5229 7.476 15.0767 6.64523 15.769L4.61446 14.9844C4.42985 14.9382 4.29138 14.8921 4.10677 14.8921C3.55292 14.8921 3.04523 15.169 2.76831 15.6305L2.02985 16.9229C1.66062 17.569 1.79908 18.3998 2.39908 18.8613L4.10677 20.2921C4.01446 20.7998 3.96831 21.3536 3.96831 21.8613C3.96831 22.4152 4.01446 22.9229 4.10677 23.4305L2.39908 24.8613C1.84523 25.3229 1.66062 26.1536 2.02985 26.7998L2.76831 28.1844C3.04523 28.6459 3.55292 28.9228 4.10677 28.9228C4.29138 28.9228 4.476 28.8767 4.61446 28.8305L6.69138 28.0459C7.52215 28.7844 8.44523 29.2921 9.36831 29.6152L9.73754 31.8305C9.876 32.569 10.476 33.0767 11.2606 33.0767H12.7375C13.476 33.0767 14.1222 32.5229 14.2606 31.7844L14.6298 29.569C15.6914 29.1998 16.6145 28.6459 17.4452 27.8613L19.3837 28.6459C19.5683 28.6921 19.7529 28.7382 19.9375 28.7382C20.4914 28.7382 20.9991 28.4613 21.276 27.9998L21.9683 26.7998C22.3375 26.2459 22.1529 25.4152 21.5991 24.9536ZM12.0452 27.1229C9.276 27.1229 7.01446 24.8613 7.01446 22.0459C7.01446 19.2305 9.22985 16.969 12.0452 16.969C14.8606 16.969 17.076 19.2305 17.076 22.0459C17.076 24.8613 14.8145 27.1229 12.0452 27.1229Z" fill="#333333"/>
<path d="M13.3837 18.3076H11.2606C10.9375 18.3076 10.6606 18.4922 10.5683 18.7692L9.27597 22.0922C9.18366 22.323 9.36827 22.5999 9.6452 22.5999H11.8144L11.0298 25.3692C10.9375 25.6461 11.2606 25.7845 11.4452 25.5999L14.7221 21.7692C14.9529 21.5384 14.7683 21.1692 14.4452 21.1692H12.8298L14.2606 18.9076C14.399 18.6768 14.2144 18.3538 13.9375 18.3538H13.3837V18.3076Z" fill="#333333"/>
<path d="M43.4613 27.708C40.2133 27.708 38.2293 25.564 38.2293 22.076C38.2293 18.588 40.2133 16.412 43.4613 16.412C46.6773 16.412 48.6773 18.588 48.6773 22.076C48.6773 23.852 48.1493 25.292 47.2213 26.268L48.6773 27.484L47.7653 28.588L46.0213 27.132C45.3013 27.516 44.4373 27.708 43.4613 27.708ZM43.4613 26.204C43.9093 26.204 44.3093 26.14 44.6613 26.012L43.0613 24.668L43.9733 23.548L45.9093 25.164C46.5173 24.444 46.8533 23.388 46.8533 22.076C46.8533 19.5 45.5893 17.916 43.4613 17.916C41.3173 17.916 40.0533 19.5 40.0533 22.076C40.0533 24.636 41.3173 26.204 43.4613 26.204ZM55.8769 23.964V18.972H57.5729V27.5H55.8769V26.348C55.3169 27.26 54.4209 27.708 53.3329 27.708C51.5889 27.708 50.5009 26.684 50.5009 24.668V18.972H52.2129V24.316C52.2129 25.548 52.7249 26.284 53.8609 26.284C55.1089 26.284 55.8769 25.148 55.8769 23.964ZM59.6572 17.916V15.98H61.3692V17.916H59.6572ZM59.6572 27.5V18.972H61.3692V27.5H59.6572ZM70.6544 21.948H68.9424C68.7344 20.732 67.9504 20.188 66.9584 20.188C65.5344 20.188 64.7664 21.276 64.7664 23.244C64.7664 25.18 65.5664 26.284 67.0064 26.284C68.0304 26.284 68.7504 25.724 69.0064 24.636H70.7024C70.3344 26.764 68.8624 27.708 66.9744 27.708C64.5104 27.708 63.0224 26.012 63.0224 23.244C63.0224 20.348 64.5424 18.748 66.9584 18.748C68.8624 18.748 70.3664 19.82 70.6544 21.948ZM72.2978 27.5V15.98H74.0098V22.588L77.4018 18.972H79.4498L75.7698 22.764L79.6738 27.5H77.5458L74.0098 23.244V27.5H72.2978ZM85.6474 19.308C85.6474 22.172 92.2394 19.916 92.2394 24.364C92.2394 26.508 90.4954 27.708 88.1114 27.708C85.6954 27.708 84.0314 26.604 83.5834 24.332H85.4554C85.7594 25.564 86.6714 26.236 88.1274 26.236C89.6154 26.236 90.3994 25.58 90.3994 24.604C90.3994 21.532 83.8074 23.82 83.8074 19.452C83.8074 17.82 85.1834 16.412 87.6634 16.412C89.8074 16.412 91.5674 17.436 91.9514 19.82H90.0474C89.7434 18.476 88.8954 17.884 87.6154 17.884C86.3674 17.884 85.6474 18.444 85.6474 19.308ZM101.413 24.716C100.949 26.7 99.4767 27.708 97.4767 27.708C94.9647 27.708 93.4287 26.028 93.4287 23.244C93.4287 20.348 94.9647 18.748 97.3967 18.748C99.8607 18.748 101.349 20.412 101.349 23.148V23.564H95.1727C95.2687 25.308 96.0847 26.284 97.4767 26.284C98.5647 26.284 99.3327 25.772 99.6207 24.716H101.413ZM97.3967 20.172C96.1647 20.172 95.4287 20.956 95.2207 22.396H99.5727C99.3647 20.956 98.6127 20.172 97.3967 20.172ZM103.287 24.956V20.3H102.135V18.972H103.287V17.004H104.999V18.972H106.839V20.3H104.999V24.86C104.999 25.836 105.271 26.3 106.471 26.3H106.807V27.548C106.615 27.644 106.215 27.708 105.735 27.708C104.071 27.708 103.287 26.796 103.287 24.956ZM113.502 23.964V18.972H115.198V27.5H113.502V26.348C112.942 27.26 112.046 27.708 110.958 27.708C109.214 27.708 108.126 26.684 108.126 24.668V18.972H109.838V24.316C109.838 25.548 110.35 26.284 111.486 26.284C112.734 26.284 113.502 25.148 113.502 23.964ZM118.994 31.02H117.282V18.972H118.994V19.996C119.538 19.196 120.338 18.748 121.314 18.748C123.57 18.748 124.93 20.428 124.93 23.212C124.93 26.108 123.538 27.708 121.314 27.708C120.338 27.708 119.538 27.308 118.994 26.524V31.02ZM121.106 20.188C119.73 20.188 118.994 21.26 118.994 23.212C118.994 25.164 119.762 26.268 121.106 26.268C122.45 26.268 123.186 25.18 123.186 23.212C123.186 21.276 122.418 20.188 121.106 20.188Z" fill="#333333"/>
</svg>
